# xmcd
#
# Track frame offsets:
#	150
#	20352
#	57930
#	79680
#	91602
#	102702
#	122737
#	137515
#	166875
#	204480
#	214682
#	230355
#	249250
#	261630
#
# Disc length: 3661 seconds
#
# Revision: 1
# Processed by: cddbd v1.5.1PL0 Copyright (c) Steve Scherf et al.
# Submitted via: CDex 1.50Beta5
#
DISCID=b80e4b0e
DTITLE=宮良長包 - 宮良長包作品集〜赤ゆらの花
DYEAR=1900
DGENRE=
TTITLE0=えんどうの花
TTITLE1=なんた浜
TTITLE2=帰り舟
TTITLE3=桑の実
TTITLE4=泊り舟
TTITLE5=赤ゆらの花
TTITLE6=南国の花
TTITLE7=首里古城
TTITLE8=嘆きの海
TTITLE9=猫ユンタ
TTITLE10=安里屋ユンタ
TTITLE11=汗水節
TTITLE12=なんた浜
TTITLE13=酒は泡盛
EXTD=
EXTT0=
EXTT1=
EXTT2=
EXTT3=
EXTT4=
EXTT5=
EXTT6=
EXTT7=
EXTT8=
EXTT9=
EXTT10=
EXTT11=
EXTT12=
EXTT13=
PLAYORDER=
